<svg width="315" height="384" viewBox="0 0 315 384" fill="none" xmlns="http://www.w3.org/2000/svg">
<path d="M300.865 130.698H228.173V123.819C228.173 116.131 221.712 109.656 214.038 109.656H206.365L211.212 14.9715C211.212 10.9252 210 7.28346 207.173 4.451C204.346 1.61855 200.712 0 196.673 0H117.923C113.885 0 110.25 1.61855 107.423 4.451C104.596 7.28346 103.385 10.9252 103.385 14.9715L108.231 109.656H100.962C93.2885 109.656 86.8269 116.131 86.8269 123.819V130.698H14.1346C6.46154 130.698 0 137.172 0 144.86V369.838C0 377.526 6.46154 384 14.1346 384H300.865C308.538 384 315 377.526 315 369.838V144.86C315 136.767 308.538 130.698 300.865 130.698ZM115.096 137.981H123.577C127.615 137.981 131.25 136.362 134.077 133.53C136.904 130.698 138.115 127.056 138.115 123.009L132.865 27.9199H181.731L177.288 123.009C177.288 127.056 178.5 130.698 181.327 133.53C184.154 136.362 187.788 137.981 191.827 137.981H200.308V152.143H115.5V137.981H115.096ZM28.2692 355.675V230.643H122.365L119.538 202.318H28.2692V159.022H86.4231V165.901C86.4231 173.589 92.8846 180.063 100.558 180.063H138.923L151.442 312.379C151.846 316.021 154.673 317.64 157.096 317.64C159.923 317.64 162.75 316.021 163.154 312.379L175.673 180.063H214.038C221.712 180.063 228.173 173.589 228.173 165.901V159.022H286.731V202.318H195.058L192.231 230.643H286.731V355.271H28.2692V355.675Z" fill="url(#paint0_linear_54_45)"/>
<defs>
<linearGradient id="paint0_linear_54_45" x1="0" y1="0" x2="315.478" y2="383.607" gradientUnits="userSpaceOnUse">
<stop offset="0.197206" stop-color="#00457C"/>
<stop offset="1" stop-color="#40E0D0"/>
</linearGradient>
</defs>
</svg>
