<svg width="1171" height="487" viewBox="0 0 1171 487" fill="none" xmlns="http://www.w3.org/2000/svg">
<path d="M300.865 181.698H228.173V174.819C228.173 167.131 221.712 160.656 214.038 160.656H206.365L211.212 65.9715C211.212 61.9252 210 58.2835 207.173 55.451C204.346 52.6185 200.712 51 196.673 51H117.923C113.885 51 110.25 52.6185 107.423 55.451C104.596 58.2835 103.385 61.9252 103.385 65.9715L108.231 160.656H100.962C93.2885 160.656 86.8269 167.131 86.8269 174.819V181.698H14.1346C6.46154 181.698 0 188.172 0 195.86V420.838C0 428.526 6.46154 435 14.1346 435H300.865C308.538 435 315 428.526 315 420.838V195.86C315 187.767 308.538 181.698 300.865 181.698ZM115.096 188.981H123.577C127.615 188.981 131.25 187.362 134.077 184.53C136.904 181.698 138.115 178.056 138.115 174.009L132.865 78.9199H181.731L177.288 174.009C177.288 178.056 178.5 181.698 181.327 184.53C184.154 187.362 187.788 188.981 191.827 188.981H200.308V203.143H115.5V188.981H115.096ZM28.2692 406.675V281.643H122.365L119.538 253.318H28.2692V210.022H86.4231V216.901C86.4231 224.589 92.8846 231.063 100.558 231.063H138.923L151.442 363.379C151.846 367.021 154.673 368.64 157.096 368.64C159.923 368.64 162.75 367.021 163.154 363.379L175.673 231.063H214.038C221.712 231.063 228.173 224.589 228.173 216.901V210.022H286.731V253.318H195.058L192.231 281.643H286.731V406.271H28.2692V406.675Z" fill="url(#paint0_linear_54_25)"/>
<path d="M432.295 208.273V230.091H369.227V208.273H432.295ZM383.545 183.182H412.591V280.818C412.591 283.5 413 285.591 413.818 287.091C414.636 288.545 415.773 289.568 417.227 290.159C418.727 290.75 420.455 291.045 422.409 291.045C423.773 291.045 425.136 290.932 426.5 290.705C427.864 290.432 428.909 290.227 429.636 290.091L434.205 311.705C432.75 312.159 430.705 312.682 428.068 313.273C425.432 313.909 422.227 314.295 418.455 314.432C411.455 314.705 405.318 313.773 400.045 311.636C394.818 309.5 390.75 306.182 387.841 301.682C384.932 297.182 383.5 291.5 383.545 284.636V183.182ZM518.375 268.409V208.273H547.42V313H519.534V293.977H518.443C516.08 300.114 512.148 305.045 506.648 308.773C501.193 312.5 494.534 314.364 486.67 314.364C479.67 314.364 473.511 312.773 468.193 309.591C462.875 306.409 458.716 301.886 455.716 296.023C452.761 290.159 451.261 283.136 451.216 274.955V208.273H480.261V269.773C480.307 275.955 481.966 280.841 485.239 284.432C488.511 288.023 492.898 289.818 498.398 289.818C501.898 289.818 505.17 289.023 508.216 287.432C511.261 285.795 513.716 283.386 515.58 280.205C517.489 277.023 518.42 273.091 518.375 268.409ZM570.653 313V208.273H598.812V226.545H599.903C601.813 220.045 605.017 215.136 609.517 211.818C614.017 208.455 619.199 206.773 625.062 206.773C626.517 206.773 628.085 206.864 629.767 207.045C631.449 207.227 632.926 207.477 634.199 207.795V233.568C632.835 233.159 630.949 232.795 628.54 232.477C626.131 232.159 623.926 232 621.926 232C617.653 232 613.835 232.932 610.472 234.795C607.153 236.614 604.517 239.159 602.562 242.432C600.653 245.705 599.699 249.477 599.699 253.75V313H570.653ZM678.261 252.455V313H649.216V208.273H676.898V226.75H678.125C680.443 220.659 684.33 215.841 689.784 212.295C695.239 208.705 701.852 206.909 709.625 206.909C716.898 206.909 723.239 208.5 728.648 211.682C734.057 214.864 738.261 219.409 741.261 225.318C744.261 231.182 745.761 238.182 745.761 246.318V313H716.716V251.5C716.761 245.091 715.125 240.091 711.807 236.5C708.489 232.864 703.92 231.045 698.102 231.045C694.193 231.045 690.739 231.886 687.739 233.568C684.784 235.25 682.466 237.705 680.784 240.932C679.148 244.114 678.307 247.955 678.261 252.455ZM815.972 315.045C805.381 315.045 796.222 312.795 788.494 308.295C780.813 303.75 774.881 297.432 770.699 289.341C766.517 281.205 764.426 271.773 764.426 261.045C764.426 250.227 766.517 240.773 770.699 232.682C774.881 224.545 780.813 218.227 788.494 213.727C796.222 209.182 805.381 206.909 815.972 206.909C826.562 206.909 835.699 209.182 843.381 213.727C851.108 218.227 857.062 224.545 861.244 232.682C865.426 240.773 867.517 250.227 867.517 261.045C867.517 271.773 865.426 281.205 861.244 289.341C857.062 297.432 851.108 303.75 843.381 308.295C835.699 312.795 826.562 315.045 815.972 315.045ZM816.108 292.545C820.926 292.545 824.949 291.182 828.176 288.455C831.403 285.682 833.835 281.909 835.472 277.136C837.153 272.364 837.994 266.932 837.994 260.841C837.994 254.75 837.153 249.318 835.472 244.545C833.835 239.773 831.403 236 828.176 233.227C824.949 230.455 820.926 229.068 816.108 229.068C811.244 229.068 807.153 230.455 803.835 233.227C800.563 236 798.085 239.773 796.403 244.545C794.767 249.318 793.949 254.75 793.949 260.841C793.949 266.932 794.767 272.364 796.403 277.136C798.085 281.909 800.563 285.682 803.835 288.455C807.153 291.182 811.244 292.545 816.108 292.545ZM980.665 208.273L944.051 313H911.324L874.71 208.273H905.392L927.142 283.205H928.233L949.915 208.273H980.665ZM1039.88 315.045C1029.11 315.045 1019.84 312.864 1012.06 308.5C1004.34 304.091 998.381 297.864 994.199 289.818C990.017 281.727 987.926 272.159 987.926 261.114C987.926 250.341 990.017 240.886 994.199 232.75C998.381 224.614 1004.27 218.273 1011.86 213.727C1019.49 209.182 1028.45 206.909 1038.72 206.909C1045.63 206.909 1052.06 208.023 1058.02 210.25C1064.02 212.432 1069.24 215.727 1073.7 220.136C1078.2 224.545 1081.7 230.091 1084.2 236.773C1086.7 243.409 1087.95 251.182 1087.95 260.091V268.068H999.517V250.068H1060.61C1060.61 245.886 1059.7 242.182 1057.88 238.955C1056.06 235.727 1053.54 233.205 1050.31 231.386C1047.13 229.523 1043.43 228.591 1039.2 228.591C1034.79 228.591 1030.88 229.614 1027.47 231.659C1024.11 233.659 1021.47 236.364 1019.56 239.773C1017.65 243.136 1016.68 246.886 1016.63 251.023V268.136C1016.63 273.318 1017.59 277.795 1019.49 281.568C1021.45 285.341 1024.2 288.25 1027.74 290.295C1031.29 292.341 1035.49 293.364 1040.36 293.364C1043.59 293.364 1046.54 292.909 1049.22 292C1051.9 291.091 1054.2 289.727 1056.11 287.909C1058.02 286.091 1059.47 283.864 1060.47 281.227L1087.34 283C1085.97 289.455 1083.18 295.091 1078.95 299.909C1074.77 304.682 1069.36 308.409 1062.72 311.091C1056.13 313.727 1048.52 315.045 1039.88 315.045ZM1106.9 313V208.273H1135.06V226.545H1136.15C1138.06 220.045 1141.27 215.136 1145.77 211.818C1150.27 208.455 1155.45 206.773 1161.31 206.773C1162.77 206.773 1164.34 206.864 1166.02 207.045C1167.7 207.227 1169.18 207.477 1170.45 207.795V233.568C1169.09 233.159 1167.2 232.795 1164.79 232.477C1162.38 232.159 1160.18 232 1158.18 232C1153.9 232 1150.09 232.932 1146.72 234.795C1143.4 236.614 1140.77 239.159 1138.81 242.432C1136.9 245.705 1135.95 249.477 1135.95 253.75V313H1106.9Z" fill="#F5F0DB"/>
<defs>
<linearGradient id="paint0_linear_54_25" x1="0" y1="51" x2="315.478" y2="434.607" gradientUnits="userSpaceOnUse">
<stop offset="0.197206" stop-color="#00457C"/>
<stop offset="1" stop-color="#40E0D0"/>
</linearGradient>
</defs>
</svg>
